<svg xmlns="http://www.w3.org/2000/svg" viewBox="0 0 140 60" width="140" height="60">
  <rect width="140" height="60" fill="white"/>
  <g fill="#0F62FE">
    <rect x="20" y="14" width="30" height="5" rx="1"/>
    <rect x="20" y="21" width="30" height="5" rx="1"/>
    <rect x="20" y="28" width="30" height="5" rx="1"/>
    <rect x="20" y="35" width="30" height="5" rx="1"/>
    <rect x="20" y="42" width="30" height="5" rx="1"/>
    <rect x="55" y="14" width="30" height="5" rx="1"/>
    <rect x="60" y="21" width="20" height="5" rx="1"/>
    <rect x="55" y="28" width="30" height="5" rx="1"/>
    <rect x="60" y="35" width="20" height="5" rx="1"/>
    <rect x="55" y="42" width="30" height="5" rx="1"/>
    <rect x="90" y="14" width="30" height="5" rx="1"/>
    <rect x="90" y="21" width="30" height="5" rx="1"/>
    <rect x="90" y="28" width="20" height="5" rx="1"/>
    <rect x="90" y="35" width="30" height="5" rx="1"/>
    <rect x="90" y="42" width="30" height="5" rx="1"/>
  </g>
</svg>
